PathFileType	4	(X/Y/Z)	 0.16m3min.trc
DataRate	CameraRate	NumFrames	NumMarkers	Units	OrigDataRate	OrigDataStartFrame	OrigNumFrames
200	200	10	39	m	200	876	1000
Frame#	Time	C7			LSH			RSH			MAN			RASI			LASI			HIPR			HIPL			RPSI			LPSI			COX			RTHI1			RTHI2			RTHI3			RTHI4			RLKN			RMKN			RSHA1			RSHA2			RSHA3			RSHA4			RHEEL			RMET5			RMET1			RTOE			LTHI1			LTHI2			LTHI3			LTHI4			LLKN			LMKN			LSHA1			LSHA2			LSHA3			LSHA4			LHEEL			LMET5			LMET1			LTOE			
		X1	Y1	Z1	X2	Y2	Z2	X3	Y3	Z3	X4	Y4	Z4	X5	Y5	Z5	X6	Y6	Z6	X7	Y7	Z7	X8	Y8	Z8	X9	Y9	Z9	X10	Y10	Z10	X11	Y11	Z11	X12	Y12	Z12	X13	Y13	Z13	X14	Y14	Z14	X15	Y15	Z15	X16	Y16	Z16	X17	Y17	Z17	X18	Y18	Z18	X19	Y19	Z19	X20	Y20	Z20	X21	Y21	Z21	X22	Y22	Z22	X23	Y23	Z23	X24	Y24	Z24	X25	Y25	Z25	X26	Y26	Z26	X27	Y27	Z27	X28	Y28	Z28	X29	Y29	Z29	X30	Y30	Z30	X31	Y31	Z31	X32	Y32	Z32	X33	Y33	Z33	X34	Y34	Z34	X35	Y35	Z35	X36	Y36	Z36	X37	Y37	Z37	X38	Y38	Z38	X39	Y39	Z39	
876	4.3800	-0.267148	1.438846	-0.577892	-0.223460	1.418943	-0.774109	-0.233216	1.421351	-0.391663	-0.106753	1.389134	-0.584435	-0.136784	0.929430	-0.454096	-0.130097	0.929412	-0.699739	-0.211449	0.982798	-0.407699	-0.205274	0.988645	-0.746351	-0.305717	0.989071	-0.547589	-0.303530	0.990249	-0.608866	-0.302425	0.991035	-0.579336	-0.186056	0.713611	-0.363542	-0.168405	0.655102	-0.357107	-0.101590	0.683428	-0.361003	-0.125488	0.737813	-0.367468	-0.149448	0.451263	-0.379864	-0.113427	0.436156	-0.505273	-0.278568	0.246380	-0.398552	-0.301941	0.215409	-0.416935	-0.249578	0.184527	-0.414922	-0.229692	0.216662	-0.400550	-0.388121	0.094676	-0.487848	-0.245525	0.033315	-0.387590	-0.180553	0.047672	-0.455077	-0.150382	0.034816	-0.446651	-0.221652	0.682575	-0.768887	-0.200106	0.627102	-0.768735	-0.137554	0.653542	-0.795304	-0.167268	0.707763	-0.792677	-0.154873	0.433930	-0.764501	-0.127741	0.417381	-0.647060	-0.301729	0.239769	-0.735138	-0.322569	0.205594	-0.720152	-0.267633	0.177465	-0.729167	-0.253741	0.216769	-0.743357	-0.405312	0.098387	-0.660766	-0.254228	0.035305	-0.747844	-0.199650	0.048947	-0.676350	-0.170137	0.036374	-0.683850	
877	4.3850	-0.267831	1.444572	-0.578095	-0.224432	1.425332	-0.773931	-0.234265	1.427564	-0.392106	-0.107286	1.395725	-0.584533	-0.135077	0.935720	-0.454064	-0.127989	0.935367	-0.699734	-0.209882	0.989223	-0.407941	-0.203269	0.995023	-0.746452	-0.303970	0.994763	-0.547947	-0.301684	0.995907	-0.609285	-0.300691	0.996690	-0.579738	-0.186335	0.719448	-0.363678	-0.169383	0.660717	-0.357345	-0.102256	0.688307	-0.361016	-0.125526	0.742966	-0.367459	-0.152876	0.456535	-0.380031	-0.116396	0.441031	-0.505342	-0.279996	0.249747	-0.398182	-0.303006	0.218522	-0.416566	-0.250380	0.188096	-0.414136	-0.230842	0.220518	-0.399824	-0.387378	0.097363	-0.486922	-0.245228	0.033458	-0.387570	-0.180461	0.047677	-0.454976	-0.150403	0.034822	-0.446688	-0.221590	0.688471	-0.768945	-0.200579	0.632771	-0.768658	-0.137599	0.658604	-0.794823	-0.166808	0.713115	-0.792382	-0.157921	0.438507	-0.763946	-0.131009	0.421912	-0.646396	-0.302964	0.242574	-0.735123	-0.323470	0.208137	-0.720178	-0.268207	0.180582	-0.729621	-0.254756	0.220122	-0.743703	-0.404595	0.100567	-0.661678	-0.253939	0.035373	-0.747824	-0.199559	0.048918	-0.676318	-0.170150	0.036361	-0.683716	
878	4.3900	-0.268532	1.450693	-0.578303	-0.225407	1.432156	-0.773740	-0.235302	1.434170	-0.392566	-0.107847	1.402749	-0.584639	-0.133321	0.942383	-0.454042	-0.125884	0.941698	-0.699757	-0.208151	0.996004	-0.408211	-0.201223	1.001755	-0.746498	-0.302177	1.000853	-0.548241	-0.299783	1.001933	-0.609644	-0.298872	1.002715	-0.580053	-0.186738	0.725677	-0.363846	-0.170506	0.666727	-0.357625	-0.103065	0.693554	-0.360982	-0.125690	0.748491	-0.367392	-0.156533	0.462244	-0.380239	-0.119509	0.446330	-0.505454	-0.281479	0.253502	-0.397870	-0.304084	0.221999	-0.416275	-0.251171	0.192065	-0.413289	-0.232036	0.224760	-0.399073	-0.386434	0.100378	-0.486020	-0.244892	0.033663	-0.387580	-0.180381	0.047627	-0.454799	-0.150428	0.034829	-0.446727	-0.221683	0.694765	-0.768937	-0.201225	0.638846	-0.768516	-0.137854	0.664053	-0.794364	-0.166536	0.718851	-0.792089	-0.161231	0.443616	-0.763448	-0.134409	0.426855	-0.645817	-0.304272	0.245728	-0.735161	-0.324411	0.211094	-0.720325	-0.268813	0.184093	-0.730255	-0.255831	0.223883	-0.744211	-0.403731	0.103088	-0.662741	-0.253612	0.035465	-0.747851	-0.199468	0.048897	-0.676319	-0.170176	0.036348	-0.683567	
879	4.3950	-0.269238	1.457171	-0.578516	-0.226361	1.439354	-0.773542	-0.236321	1.441147	-0.393033	-0.108429	1.410149	-0.584753	-0.131540	0.949394	-0.454016	-0.123799	0.948378	-0.699782	-0.206266	1.003117	-0.408510	-0.199117	1.008765	-0.746485	-0.300361	1.007277	-0.548467	-0.297882	1.008272	-0.609944	-0.297042	1.009066	-0.580322	-0.187246	0.732263	-0.364056	-0.171748	0.673104	-0.357952	-0.103990	0.699149	-0.360914	-0.125952	0.754364	-0.367277	-0.160389	0.468343	-0.380491	-0.122769	0.451966	-0.505606	-0.282991	0.257610	-0.397569	-0.305138	0.225798	-0.416021	-0.251915	0.196392	-0.412368	-0.233238	0.229349	-0.398284	-0.385272	0.103730	-0.485148	-0.244518	0.033942	-0.387578	-0.180228	0.047701	-0.454803	-0.150454	0.034837	-0.446775	-0.221919	0.701424	-0.768869	-0.202024	0.645302	-0.768310	-0.138296	0.669865	-0.793922	-0.166434	0.724948	-0.791805	-0.164752	0.449207	-0.763010	-0.137913	0.432178	-0.645321	-0.305616	0.249217	-0.735294	-0.325345	0.214403	-0.720577	-0.269413	0.187970	-0.731077	-0.256936	0.228031	-0.744876	-0.402696	0.105941	-0.663984	-0.253234	0.035573	-0.747926	-0.199376	0.048874	-0.676358	-0.170224	0.036337	-0.683410	
880	4.4000	-0.269941	1.463963	-0.578732	-0.227271	1.446876	-0.773337	-0.237305	1.448439	-0.393510	-0.109038	1.417862	-0.584871	-0.129751	0.956721	-0.453975	-0.121748	0.955388	-0.699803	-0.204249	1.010558	-0.408831	-0.196952	1.016004	-0.746405	-0.298540	1.013988	-0.548627	-0.296006	1.014879	-0.610186	-0.295237	1.015694	-0.580551	-0.187831	0.739172	-0.364293	-0.173072	0.679812	-0.358316	-0.105000	0.705062	-0.360826	-0.126278	0.760545	-0.367126	-0.164367	0.474750	-0.380768	-0.126148	0.457886	-0.505789	-0.284498	0.262016	-0.397268	-0.306136	0.229882	-0.415799	-0.252603	0.201035	-0.411381	-0.234414	0.234266	-0.397442	-0.383873	0.107402	-0.484282	-0.244126	0.034278	-0.387538	-0.180133	0.047645	-0.454640	-0.150464	0.034815	-0.446891	-0.222278	0.708435	-0.768743	-0.202954	0.652120	-0.768042	-0.138907	0.676020	-0.793497	-0.166492	0.731386	-0.791532	-0.168439	0.455222	-0.762624	-0.141509	0.437855	-0.644892	-0.306945	0.253020	-0.735536	-0.326228	0.218000	-0.720920	-0.269972	0.192191	-0.732089	-0.258047	0.232531	-0.745674	-0.401469	0.109127	-0.665408	-0.252802	0.035704	-0.748068	-0.199284	0.048867	-0.676460	-0.170299	0.036341	-0.683255	
881	4.4050	-0.270632	1.471032	-0.578953	-0.228127	1.454652	-0.773120	-0.238252	1.456007	-0.393992	-0.109674	1.425827	-0.584995	-0.127962	0.964318	-0.453926	-0.119728	0.962709	-0.699817	-0.202118	1.018316	-0.409156	-0.194743	1.023448	-0.746258	-0.296726	1.020924	-0.548720	-0.294182	1.021722	-0.610379	-0.293505	1.022544	-0.580744	-0.188439	0.746373	-0.364549	-0.174441	0.686812	-0.358716	-0.106057	0.711257	-0.360724	-0.126642	0.767000	-0.366954	-0.168419	0.481391	-0.381050	-0.129600	0.464057	-0.506000	-0.285949	0.266723	-0.396998	-0.307031	0.234205	-0.415560	-0.253204	0.205953	-0.410327	-0.235520	0.239473	-0.396544	-0.382216	0.111367	-0.483418	-0.243676	0.034695	-0.387439	-0.180004	0.047651	-0.454560	-0.150501	0.034804	-0.447005	-0.222750	0.715786	-0.768555	-0.204002	0.659276	-0.767713	-0.139667	0.682494	-0.793090	-0.166690	0.738136	-0.791273	-0.172238	0.461594	-0.762288	-0.145185	0.443869	-0.644505	-0.308218	0.257110	-0.735890	-0.327013	0.221823	-0.721340	-0.270450	0.196728	-0.733275	-0.259115	0.237352	-0.746602	-0.400024	0.112627	-0.666994	-0.252314	0.035858	-0.748292	-0.199193	0.048866	-0.676629	-0.170400	0.036349	-0.683097	
882	4.4100	-0.271300	1.478324	-0.579176	-0.228910	1.462621	-0.772888	-0.239164	1.463813	-0.394481	-0.110333	1.433996	-0.585124	-0.126182	0.972144	-0.453874	-0.117754	0.970318	-0.699826	-0.199904	1.026369	-0.409465	-0.192503	1.031111	-0.746056	-0.294932	1.028047	-0.548745	-0.292375	1.028758	-0.610527	-0.291771	1.029561	-0.580869	-0.189067	0.753807	-0.364849	-0.175819	0.694054	-0.359146	-0.107135	0.717682	-0.360616	-0.127018	0.773678	-0.366761	-0.172530	0.488280	-0.381334	-0.133060	0.470460	-0.506238	-0.287304	0.271695	-0.396756	-0.307784	0.238730	-0.415292	-0.253683	0.211115	-0.409180	-0.236518	0.244934	-0.395566	-0.380298	0.115622	-0.482539	-0.243171	0.035178	-0.387296	-0.179868	0.047659	-0.454465	-0.150566	0.034807	-0.447098	-0.223316	0.723439	-0.768312	-0.205145	0.666745	-0.767319	-0.140557	0.689261	-0.792697	-0.167013	0.745175	-0.791025	-0.176100	0.468263	-0.761981	-0.148911	0.450189	-0.644137	-0.309383	0.261448	-0.736317	-0.327654	0.225811	-0.721820	-0.270804	0.201555	-0.734624	-0.260095	0.242464	-0.747648	-0.398333	0.116420	-0.668700	-0.251773	0.036042	-0.748601	-0.199097	0.048883	-0.676888	-0.170522	0.036359	-0.682957	
883	4.4150	-0.271941	1.485789	-0.579399	-0.229616	1.470720	-0.772639	-0.240040	1.471815	-0.394975	-0.111011	1.442309	-0.585250	-0.124416	0.980155	-0.453823	-0.115834	0.978183	-0.699828	-0.197633	1.034670	-0.409739	-0.190244	1.039000	-0.745814	-0.293162	1.035301	-0.548708	-0.290624	1.035947	-0.610635	-0.290125	1.036721	-0.580967	-0.189684	0.761421	-0.365162	-0.177183	0.701484	-0.359609	-0.108212	0.724294	-0.360508	-0.127388	0.780540	-0.366552	-0.176604	0.495336	-0.381646	-0.136458	0.477061	-0.506503	-0.288534	0.276852	-0.396533	-0.308369	0.243439	-0.414974	-0.254007	0.216488	-0.407931	-0.237366	0.250621	-0.394495	-0.378102	0.120131	-0.481586	-0.242602	0.035735	-0.387126	-0.179689	0.047734	-0.454436	-0.150658	0.034819	-0.447178	-0.223956	0.731356	-0.768021	-0.206359	0.674487	-0.766867	-0.141540	0.696275	-0.792299	-0.167437	0.752465	-0.790787	-0.179971	0.475190	-0.761690	-0.152643	0.456785	-0.643766	-0.310375	0.266023	-0.736842	-0.328238	0.230292	-0.722811	-0.270985	0.206642	-0.736121	-0.260936	0.247837	-0.748789	-0.396366	0.120501	-0.670487	-0.251197	0.036239	-0.748970	-0.198973	0.048915	-0.677207	-0.170666	0.036376	-0.682824	
884	4.4200	-0.272550	1.493371	-0.579623	-0.230238	1.478902	-0.772377	-0.240865	1.479954	-0.395481	-0.111708	1.450717	-0.585372	-0.122666	0.988300	-0.453785	-0.113980	0.986273	-0.699829	-0.195333	1.043161	-0.409978	-0.187988	1.047112	-0.745556	-0.291417	1.042656	-0.548620	-0.288915	1.043260	-0.610709	-0.288540	1.043981	-0.581019	-0.190267	0.769164	-0.365464	-0.178512	0.709045	-0.360097	-0.109278	0.731040	-0.360404	-0.127749	0.787529	-0.366328	-0.180615	0.502517	-0.381981	-0.139738	0.483831	-0.506789	-0.289551	0.282161	-0.396324	-0.308722	0.248309	-0.414536	-0.254150	0.222047	-0.406584	-0.238031	0.256507	-0.393310	-0.375643	0.124840	-0.480509	-0.241973	0.036345	-0.386929	-0.179531	0.047759	-0.454289	-0.150773	0.034844	-0.447229	-0.224645	0.739504	-0.767686	-0.207622	0.682457	-0.766369	-0.142597	0.703508	-0.791905	-0.167939	0.759971	-0.790554	-0.183809	0.482335	-0.761395	-0.156339	0.463632	-0.643362	-0.311143	0.270795	-0.737423	-0.328644	0.235182	-0.724245	-0.270951	0.211967	-0.737744	-0.261579	0.253447	-0.750016	-0.394086	0.124837	-0.672271	-0.250596	0.036462	-0.749404	-0.198818	0.049014	-0.677653	-0.170804	0.036407	-0.682747	
885	4.4250	-0.273121	1.501025	-0.579844	-0.230781	1.487127	-0.772105	-0.241642	1.488211	-0.395992	-0.112422	1.459175	-0.585487	-0.120934	0.996532	-0.453772	-0.112199	0.994547	-0.699835	-0.193028	1.051766	-0.410186	-0.185754	1.055431	-0.745310	-0.289701	1.050072	-0.548482	-0.287232	1.050665	-0.610750	-0.286967	1.051310	-0.581013	-0.190827	0.776975	-0.365790	-0.179794	0.716686	-0.360615	-0.110320	0.737873	-0.360314	-0.128100	0.794607	-0.366099	-0.184539	0.509836	-0.382367	-0.142857	0.490729	-0.507098	-0.290345	0.287626	-0.396128	-0.308832	0.253313	-0.413974	-0.254080	0.227752	-0.405120	-0.238487	0.262551	-0.392018	-0.372881	0.129750	-0.479353	-0.241274	0.037004	-0.386721	-0.179355	0.047811	-0.454080	-0.150944	0.034906	-0.447168	-0.225364	0.747822	-0.767323	-0.208913	0.690615	-0.765840	-0.143700	0.710923	-0.791506	-0.168487	0.767650	-0.790323	-0.187572	0.489658	-0.761083	-0.159945	0.470674	-0.642908	-0.311641	0.275745	-0.738038	-0.328581	0.239548	-0.724802	-0.270654	0.217498	-0.739482	-0.261968	0.259269	-0.751319	-0.391460	0.129402	-0.673993	-0.250039	0.036676	-0.749825	-0.198621	0.049140	-0.678218	-0.170929	0.036453	-0.682755	
